<svg width="20" height="20" viewBox="0 0 20 20" fill="none" xmlns="http://www.w3.org/2000/svg">
<path d="M9.5625 3C12.5213 3 14.2236 5.61997 14.2236 7.5459C14.2235 8.31278 14.0091 9.03544 13.7451 9.58203C13.6126 9.85616 13.4615 10.0986 13.3076 10.2871C13.2449 10.3639 13.1693 10.4471 13.083 10.5215V11.0088C13.2754 11.1161 13.5583 11.27 13.9629 11.4854C14.4614 11.7506 14.8294 12.2209 15.1035 12.7432C15.3798 13.2693 15.5821 13.8895 15.7305 14.5166C15.9348 15.3804 16.0451 16.293 16.0938 17.0625C16.1157 17.4101 16.125 17.7285 16.125 18H15.1689C15.1689 17.1863 15.0764 15.9129 14.8027 14.7559C14.6658 14.1773 14.4875 13.646 14.2646 13.2217C14.0398 12.7937 13.7903 12.5135 13.5283 12.374C12.7788 11.9752 12.1404 11.5753 12.1309 11.5693L12.127 11.3232V9.86621L12.4541 9.76953L12.46 9.76562C12.4741 9.75413 12.5145 9.71977 12.5791 9.64062C12.6747 9.52356 12.7855 9.35132 12.8906 9.13379C13.1017 8.69704 13.2675 8.12743 13.2676 7.5459C13.2676 6.09938 11.9275 3.99707 9.5625 3.99707C7.19745 3.99707 5.85742 6.09938 5.85742 7.5459C5.85751 8.12743 6.02329 8.69704 6.23438 9.13379C6.33949 9.35132 6.45032 9.52356 6.5459 9.64062C6.61066 9.71995 6.652 9.75421 6.66602 9.76562L6.6709 9.76953L6.99805 9.86621V11.5488C6.98853 11.5549 6.97729 11.5623 6.96484 11.5703C6.78482 11.6866 6.30219 11.9986 5.59668 12.374C5.33476 12.5135 5.08518 12.7936 4.86035 13.2217C4.63753 13.646 4.45915 14.1773 4.32227 14.7559C4.04861 15.9129 3.95605 17.1863 3.95605 18H3C3 17.7285 3.00929 17.4101 3.03125 17.0625C3.07986 16.293 3.19019 15.3804 3.39453 14.5166C3.54286 13.8895 3.74522 13.2693 4.02148 12.7432C4.29566 12.2209 4.66363 11.7506 5.16211 11.4854C5.56676 11.27 5.84952 11.1161 6.04199 11.0088V10.5215C5.95575 10.4471 5.88012 10.3639 5.81738 10.2871C5.66348 10.0986 5.51236 9.85616 5.37988 9.58203C5.11585 9.03544 4.90146 8.31277 4.90137 7.5459C4.90137 5.61997 6.6037 3 9.5625 3Z" fill="black"/>
<path d="M9.5625 3C12.5213 3 14.2236 5.61997 14.2236 7.5459C14.2235 8.31278 14.0091 9.03544 13.7451 9.58203C13.6126 9.85616 13.4615 10.0986 13.3076 10.2871C13.2449 10.3639 13.1693 10.4471 13.083 10.5215V11.0088C13.2754 11.1161 13.5583 11.27 13.9629 11.4854C14.4614 11.7506 14.8294 12.2209 15.1035 12.7432C15.3798 13.2693 15.5821 13.8895 15.7305 14.5166C15.9348 15.3804 16.0451 16.293 16.0938 17.0625C16.1157 17.4101 16.125 17.7285 16.125 18H15.1689C15.1689 17.1863 15.0764 15.9129 14.8027 14.7559C14.6658 14.1773 14.4875 13.646 14.2646 13.2217C14.0398 12.7937 13.7903 12.5135 13.5283 12.374C12.7788 11.9752 12.1404 11.5753 12.1309 11.5693L12.127 11.3232V9.86621L12.4541 9.76953L12.46 9.76562C12.4741 9.75413 12.5145 9.71977 12.5791 9.64062C12.6747 9.52356 12.7855 9.35132 12.8906 9.13379C13.1017 8.69704 13.2675 8.12743 13.2676 7.5459C13.2676 6.09938 11.9275 3.99707 9.5625 3.99707C7.19745 3.99707 5.85742 6.09938 5.85742 7.5459C5.85751 8.12743 6.02329 8.69704 6.23438 9.13379C6.33949 9.35132 6.45032 9.52356 6.5459 9.64062C6.61066 9.71995 6.652 9.75421 6.66602 9.76562L6.6709 9.76953L6.99805 9.86621V11.5488C6.98853 11.5549 6.97729 11.5623 6.96484 11.5703C6.78482 11.6866 6.30219 11.9986 5.59668 12.374C5.33476 12.5135 5.08518 12.7936 4.86035 13.2217C4.63753 13.646 4.45915 14.1773 4.32227 14.7559C4.04861 15.9129 3.95605 17.1863 3.95605 18H3C3 17.7285 3.00929 17.4101 3.03125 17.0625C3.07986 16.293 3.19019 15.3804 3.39453 14.5166C3.54286 13.8895 3.74522 13.2693 4.02148 12.7432C4.29566 12.2209 4.66363 11.7506 5.16211 11.4854C5.56676 11.27 5.84952 11.1161 6.04199 11.0088V10.5215C5.95575 10.4471 5.88012 10.3639 5.81738 10.2871C5.66348 10.0986 5.51236 9.85616 5.37988 9.58203C5.11585 9.03544 4.90146 8.31277 4.90137 7.5459C4.90137 5.61997 6.6037 3 9.5625 3Z" stroke="white"/>
</svg>
